<svg width="48" height="48" viewBox="0 0 48 48" fill="none" xmlns="http://www.w3.org/2000/svg">
<rect x="6" y="12" width="36" height="30" rx="2" stroke="#33363F" stroke-width="2"/>
<path d="M6 16C6 14.1144 6 13.1716 6.58579 12.5858C7.17157 12 8.11438 12 10 12H38C39.8856 12 40.8284 12 41.4142 12.5858C42 13.1716 42 14.1144 42 16V20H6V16Z" fill="#33363F"/>
<path d="M14 6L14 12" stroke="#33363F" stroke-width="2" stroke-linecap="round"/>
<path d="M34 6L34 12" stroke="#33363F" stroke-width="2" stroke-linecap="round"/>
<rect x="14" y="24" width="8" height="4" rx="0.5" fill="#33363F"/>
<rect x="14" y="32" width="8" height="4" rx="0.5" fill="#33363F"/>
<rect x="26" y="24" width="8" height="4" rx="0.5" fill="#33363F"/>
<rect x="26" y="32" width="8" height="4" rx="0.5" fill="#33363F"/>
</svg>
