<svg width="64" height="64" viewBox="0 0 64 64" fill="none" xmlns="http://www.w3.org/2000/svg">
<path fill-rule="evenodd" clip-rule="evenodd" d="M21.5661 21.5H20.3501C18.8313 21.5 17.6001 20.2688 17.6001 18.75C17.6001 17.2312 18.8313 16 20.3501 16L44.3501 16C45.8689 16 47.1001 17.2312 47.1001 18.75C47.1001 20.2688 45.8689 21.5 44.3501 21.5H43.1341L45.9872 43.8496C46.0651 44.4599 45.5896 45 44.9744 45C44.4924 45 44.076 44.6629 43.9757 44.1914L39.1477 21.5L34.5927 21.5L33.8362 46.5581C33.8119 47.3614 33.1538 48 32.3501 48C31.5464 48 30.8883 47.3614 30.864 46.5581L30.1075 21.5L25.5525 21.5L20.7245 44.1914C20.6242 44.6629 20.2078 45 19.7258 45C19.1106 45 18.6351 44.4599 18.713 43.8496L21.5661 21.5ZM18.1001 18.75C18.1001 17.5074 19.1075 16.5 20.3501 16.5L44.3501 16.5C45.5927 16.5 46.6001 17.5074 46.6001 18.75C46.6001 19.9926 45.5927 21 44.3501 21H42.8514C42.851 21 42.8506 21 42.8501 21L39.3501 21C39.3497 21 39.3493 21 39.3489 21L34.3504 21C34.3506 21 34.3503 21 34.3504 21L25.3509 21C25.3506 21 25.3504 21 25.3501 21L21.8501 21C21.8499 21 21.8497 21 21.8495 21H20.3501C19.1075 21 18.1001 19.9926 18.1001 18.75ZM22.0702 21.5L19.2089 43.913C19.1692 44.2244 19.4118 44.5 19.7258 44.5C19.9718 44.5 20.1843 44.328 20.2354 44.0874L25.0413 21.5L22.0702 21.5ZM30.6078 21.5L31.3638 46.543C31.3799 47.0761 31.8167 47.5 32.3501 47.5C32.8835 47.5 33.3203 47.0761 33.3364 46.543L34.0924 21.5H30.6078ZM39.6589 21.5L44.4648 44.0874C44.5159 44.328 44.7284 44.5 44.9744 44.5C45.2884 44.5 45.531 44.2244 45.4913 43.913L42.63 21.5L39.6589 21.5Z" fill="black"/>
</svg>
