<svg width="64" height="64" viewBox="0 0 64 64" fill="none" xmlns="http://www.w3.org/2000/svg">
<path fill-rule="evenodd" clip-rule="evenodd" d="M8.75 18.5C8.61193 18.5 8.5 18.6119 8.5 18.75L8.5 22.75C8.5 22.8163 8.52634 22.8799 8.57322 22.9268C8.62011 22.9737 8.6837 23 8.75 23H9.5V45.75C9.5 45.8881 9.61193 46 9.75 46H12.75C12.8881 46 13 45.8881 13 45.75L13 23L51.5 23V45.75C51.5 45.8881 51.6119 46 51.75 46H54.75C54.8881 46 55 45.8881 55 45.75V23H55.75C55.8163 23 55.8799 22.9737 55.9268 22.9268C55.9737 22.8799 56 22.8163 56 22.75V18.75C56 18.6119 55.8881 18.5 55.75 18.5L8.75 18.5ZM54.5 23H52V45.5H54.5V23ZM54.7514 22.5H55.5V19L9 19L9 22.5H9.74982C9.74988 22.5 9.74976 22.5 9.74982 22.5H12.75C12.7501 22.5 12.7499 22.5 12.75 22.5L51.7487 22.5C51.7491 22.5 51.7496 22.5 51.75 22.5H54.75C54.7505 22.5 54.7509 22.5 54.7514 22.5ZM12.5 23H10V45.5H12.5L12.5 23Z" fill="black"/>
</svg>
